<svg xmlns="http://www.w3.org/2000/svg" viewBox="0 0 144 144"><defs><style>.a{fill:#007bb6;}.b{fill:#fff;}</style></defs><title>linkedin</title><path d="M133.34 0H10.64A10.5 10.5 0 0 0 0 10.38V133.6A10.52 10.52 0 0 0 10.63 144h122.7A10.54 10.54 0 0 0 144 133.6V10.4A10.53 10.53 0 0 0 133.34 0z" class="a"/><path d="M21.35 54H42.7v68.72H21.36V54zM32 19.83A12.38 12.38 0 1 1 19.65 32.2 12.4 12.4 0 0 1 32 19.83" class="b"/><path d="M56.1 54h20.5v9.4h.27c2.85-5.4 9.82-11.1 20.2-11.1 21.64 0 25.63 14.22 25.63 32.73v37.7h-21.34V89.3c0-8-.15-18.23-11.1-18.23-11.1 0-12.82 8.68-12.82 17.65v34H56.1V54z" class="b"/></svg>